<svg width="30" height="30" viewBox="0 0 30 30" fill="none" xmlns="http://www.w3.org/2000/svg">
<path d="M15.9072 7.02252C16.1604 7.02254 16.4022 7.12582 16.5791 7.30768L22.9131 13.8194C23.0006 13.9093 23.0701 14.0153 23.1172 14.1319C23.1643 14.2486 23.1885 14.3741 23.1885 14.5001C23.1885 14.6259 23.1641 14.7507 23.1172 14.8672C23.0701 14.9839 23.0007 15.0908 22.9131 15.1807L16.5791 21.6924C16.4022 21.8743 16.1604 21.9776 15.9072 21.9776C15.6541 21.9776 15.4123 21.8743 15.2354 21.6924C15.0587 21.5109 14.961 21.2657 14.9609 21.0118C14.9609 20.7579 15.0589 20.5127 15.2354 20.3311L19.9688 15.4659H6.75781C6.50474 15.4659 6.2628 15.3625 6.08594 15.1807C5.90933 14.9992 5.81154 14.754 5.81152 14.5001C5.81152 14.2461 5.90935 14.001 6.08594 13.8194C6.2628 13.6376 6.50474 13.5342 6.75781 13.5342H19.9688L15.2354 8.66901C15.0588 8.48739 14.9609 8.24229 14.9609 7.98834C14.961 7.73436 15.0587 7.48926 15.2354 7.30768C15.4123 7.1258 15.654 7.02252 15.9072 7.02252Z" fill="white" stroke="white" stroke-width="0.484314"/>
</svg>
