<svg width="38" height="38" viewBox="0 0 38 38" fill="none" xmlns="http://www.w3.org/2000/svg">
<path d="M33.9154 17.2932C34.1989 17.1682 34.4394 16.9627 34.6072 16.7023C34.775 16.4419 34.8628 16.138 34.8596 15.8282C34.8564 15.5184 34.7624 15.2164 34.5892 14.9595C34.416 14.7026 34.1713 14.5022 33.8853 14.383L20.3146 8.2017C19.902 8.01352 19.4539 7.91614 19.0004 7.91614C18.547 7.91614 18.0988 8.01352 17.6862 8.2017L4.11708 14.3767C3.8352 14.5002 3.5954 14.7031 3.42701 14.9607C3.25862 15.2182 3.16895 15.5193 3.16895 15.827C3.16895 16.1348 3.25862 16.4358 3.42701 16.6934C3.5954 16.951 3.8352 17.1539 4.11708 17.2774L17.6862 23.465C18.0988 23.6532 18.547 23.7506 19.0004 23.7506C19.4539 23.7506 19.902 23.6532 20.3146 23.465L33.9154 17.2932Z" stroke="#8B7355" stroke-width="2.66667" stroke-linecap="round" stroke-linejoin="round"/>
<path d="M34.833 15.8334V25.3334" stroke="#8B7355" stroke-width="2.66667" stroke-linecap="round" stroke-linejoin="round"/>
<path d="M9.5 19.7916V25.3333C9.5 26.5931 10.5009 27.8013 12.2825 28.6921C14.0641 29.5828 16.4804 30.0833 19 30.0833C21.5196 30.0833 23.9359 29.5828 25.7175 28.6921C27.4991 27.8013 28.5 26.5931 28.5 25.3333V19.7916" stroke="#8B7355" stroke-width="2.66667" stroke-linecap="round" stroke-linejoin="round"/>
</svg>
