<svg width="34" height="34" viewBox="0 0 34 34" fill="none" xmlns="http://www.w3.org/2000/svg">
<path d="M28.0863 14.0431C28.0863 21.0549 20.3078 28.3573 17.6958 30.6127C17.4524 30.7957 17.1562 30.8946 16.8518 30.8946C16.5473 30.8946 16.2511 30.7957 16.0078 30.6127C13.3957 28.3573 5.61719 21.0549 5.61719 14.0431C5.61719 11.0635 6.80083 8.20595 8.90772 6.09906C11.0146 3.99217 13.8722 2.80853 16.8518 2.80853C19.8313 2.80853 22.6889 3.99217 24.7958 6.09906C26.9027 8.20595 28.0863 11.0635 28.0863 14.0431Z" stroke="#8B7355" stroke-width="2.80864" stroke-linecap="round" stroke-linejoin="round"/>
<path d="M16.8516 18.2562C19.1784 18.2562 21.0646 16.37 21.0646 14.0433C21.0646 11.7165 19.1784 9.83032 16.8516 9.83032C14.5249 9.83032 12.6387 11.7165 12.6387 14.0433C12.6387 16.37 14.5249 18.2562 16.8516 18.2562Z" stroke="#8B7355" stroke-width="2.80864" stroke-linecap="round" stroke-linejoin="round"/>
</svg>
